<?xml version="1.0" encoding="UTF-8"?>
<svg version="1.1" xmlns="http://www.w3.org/2000/svg" width="1024" height="1024">
<path d="M0 0 C10.56 0 21.12 0 32 0 C32 10.56 32 21.12 32 32 C63.68 32 95.36 32 128 32 C128 42.56 128 53.12 128 64 C138.56 64 149.12 64 160 64 C160 74.56 160 85.12 160 96 C170.56 96 181.12 96 192 96 C192 106.56 192 117.12 192 128 C223.68 128 255.36 128 288 128 C288 138.56 288 149.12 288 160 C256.32 160 224.64 160 192 160 C192 170.56 192 181.12 192 192 C170.88 192 149.76 192 128 192 C128 234.24 128 276.48 128 320 C106.88 320 85.76 320 64 320 C64 277.76 64 235.52 64 192 C42.88 192 21.76 192 0 192 C0 149.76 0 107.52 0 64 C-10.56 64 -21.12 64 -32 64 C-32 53.44 -32 42.88 -32 32 C-21.44 32 -10.88 32 0 32 C0 21.44 0 10.88 0 0 Z " fill="#12BC22" transform="translate(448,288)"/>
<path d="M0 0 C21.12 0 42.24 0 64 0 C64 42.24 64 84.48 64 128 C42.88 128 21.76 128 0 128 C0 85.76 0 43.52 0 0 Z " fill="#793800" transform="translate(512,480)"/>
<path d="M0 0 C52.8 0 105.6 0 160 0 C160 10.56 160 21.12 160 32 C107.2 32 54.4 32 0 32 C0 21.44 0 10.88 0 0 Z " fill="#127CBC" transform="translate(576,416)"/>
<path d="M0 0 C10.56 0 21.12 0 32 0 C32 10.56 32 21.12 32 32 C42.56 32 53.12 32 64 32 C64 42.56 64 53.12 64 64 C53.44 64 42.88 64 32 64 C32 74.56 32 85.12 32 96 C21.44 96 10.88 96 0 96 C0 85.44 0 74.88 0 64 C-10.56 64 -21.12 64 -32 64 C-32 53.44 -32 42.88 -32 32 C-21.44 32 -10.88 32 0 32 C0 21.44 0 10.88 0 0 Z " fill="#127CBC" transform="translate(448,288)"/>
<path d="M0 0 C31.68 0 63.36 0 96 0 C96 10.56 96 21.12 96 32 C74.88 32 53.76 32 32 32 C32 53.12 32 74.24 32 96 C21.44 96 10.88 96 0 96 C0 64.32 0 32.64 0 0 Z " fill="#127CBC" transform="translate(640,192)"/>
<path d="M0 0 C21.12 0 42.24 0 64 0 C64 31.68 64 63.36 64 96 C42.88 96 21.76 96 0 96 C0 85.44 0 74.88 0 64 C10.56 64 21.12 64 32 64 C32 53.44 32 42.88 32 32 C21.44 32 10.88 32 0 32 C0 21.44 0 10.88 0 0 Z " fill="#127CBC" transform="translate(544,128)"/>
<path d="M0 0 C10.56 0 21.12 0 32 0 C32 10.56 32 21.12 32 32 C21.44 32 10.88 32 0 32 C0 21.44 0 10.88 0 0 Z " fill="#127CBC" transform="translate(448,512)"/>
<path d="M0 0 C10.56 0 21.12 0 32 0 C32 10.56 32 21.12 32 32 C21.44 32 10.88 32 0 32 C0 21.44 0 10.88 0 0 Z " fill="#127CBC" transform="translate(384,512)"/>
<path d="M0 0 C10.56 0 21.12 0 32 0 C32 10.56 32 21.12 32 32 C21.44 32 10.88 32 0 32 C0 21.44 0 10.88 0 0 Z " fill="#127CBC" transform="translate(640,480)"/>
<path d="M0 0 C10.56 0 21.12 0 32 0 C32 10.56 32 21.12 32 32 C21.44 32 10.88 32 0 32 C0 21.44 0 10.88 0 0 Z " fill="#127CBC" transform="translate(416,480)"/>
<path d="M0 0 C10.56 0 21.12 0 32 0 C32 10.56 32 21.12 32 32 C21.44 32 10.88 32 0 32 C0 21.44 0 10.88 0 0 Z " fill="#127CBC" transform="translate(448,448)"/>
<path d="M0 0 C10.56 0 21.12 0 32 0 C32 10.56 32 21.12 32 32 C21.44 32 10.88 32 0 32 C0 21.44 0 10.88 0 0 Z " fill="#127CBC" transform="translate(384,448)"/>
<path d="M0 0 C10.56 0 21.12 0 32 0 C32 10.56 32 21.12 32 32 C21.44 32 10.88 32 0 32 C0 21.44 0 10.88 0 0 Z " fill="#127CBC" transform="translate(640,352)"/>
<path d="M0 0 C10.56 0 21.12 0 32 0 C32 10.56 32 21.12 32 32 C21.44 32 10.88 32 0 32 C0 21.44 0 10.88 0 0 Z " fill="#127CBC" transform="translate(608,288)"/>
<path d="M0 0 C10.56 0 21.12 0 32 0 C32 10.56 32 21.12 32 32 C21.44 32 10.88 32 0 32 C0 21.44 0 10.88 0 0 Z " fill="#127CBC" transform="translate(576,256)"/>
</svg>
