<?xml version="1.0" encoding="UTF-8"?>
<svg version="1.1" xmlns="http://www.w3.org/2000/svg" width="1024" height="1024">
<path d="M0 0 C21.12 0 42.24 0 64 0 C64 21.12 64 42.24 64 64 C127.36 64 190.72 64 256 64 C256 42.88 256 21.76 256 0 C277.12 0 298.24 0 320 0 C320 21.12 320 42.24 320 64 C330.56 64 341.12 64 352 64 C352 95.68 352 127.36 352 160 C373.12 160 394.24 160 416 160 C416 170.56 416 181.12 416 192 C394.88 192 373.76 192 352 192 C352 202.56 352 213.12 352 224 C373.12 224 394.24 224 416 224 C416 234.56 416 245.12 416 256 C394.88 256 373.76 256 352 256 C352 287.68 352 319.36 352 352 C330.88 352 309.76 352 288 352 C288 447.04 288 542.08 288 640 C277.44 640 266.88 640 256 640 C256 682.24 256 724.48 256 768 C224.32 768 192.64 768 160 768 C160 725.76 160 683.52 160 640 C149.44 640 138.88 640 128 640 C128 682.24 128 724.48 128 768 C96.32 768 64.64 768 32 768 C32 725.76 32 683.52 32 640 C10.88 640 -10.24 640 -32 640 C-32 671.68 -32 703.36 -32 736 C-53.12 736 -74.24 736 -96 736 C-96 746.56 -96 757.12 -96 768 C-117.12 768 -138.24 768 -160 768 C-160 746.88 -160 725.76 -160 704 C-191.68 704 -223.36 704 -256 704 C-256 682.88 -256 661.76 -256 640 C-224.32 640 -192.64 640 -160 640 C-160 576.64 -160 513.28 -160 448 C-149.44 448 -138.88 448 -128 448 C-128 405.76 -128 363.52 -128 320 C-96.32 320 -64.64 320 -32 320 C-32 298.88 -32 277.76 -32 256 C-53.12 256 -74.24 256 -96 256 C-96 245.44 -96 234.88 -96 224 C-74.88 224 -53.76 224 -32 224 C-32 213.44 -32 202.88 -32 192 C-53.12 192 -74.24 192 -96 192 C-96 181.44 -96 170.88 -96 160 C-74.88 160 -53.76 160 -32 160 C-32 128.32 -32 96.64 -32 64 C-21.44 64 -10.88 64 0 64 C0 42.88 0 21.76 0 0 Z " fill="#FFFFFF" transform="translate(384,160)"/>
<path d="M0 0 C21.12 0 42.24 0 64 0 C64 21.12 64 42.24 64 64 C127.36 64 190.72 64 256 64 C256 42.88 256 21.76 256 0 C277.12 0 298.24 0 320 0 C320 21.12 320 42.24 320 64 C330.56 64 341.12 64 352 64 C352 95.68 352 127.36 352 160 C373.12 160 394.24 160 416 160 C416 170.56 416 181.12 416 192 C394.88 192 373.76 192 352 192 C352 202.56 352 213.12 352 224 C373.12 224 394.24 224 416 224 C416 234.56 416 245.12 416 256 C394.88 256 373.76 256 352 256 C352 287.68 352 319.36 352 352 C288.64 352 225.28 352 160 352 C160 362.56 160 373.12 160 384 C149.44 384 138.88 384 128 384 C128 373.44 128 362.88 128 352 C75.2 352 22.4 352 -32 352 C-32 320.32 -32 288.64 -32 256 C-53.12 256 -74.24 256 -96 256 C-96 245.44 -96 234.88 -96 224 C-74.88 224 -53.76 224 -32 224 C-32 213.44 -32 202.88 -32 192 C-53.12 192 -74.24 192 -96 192 C-96 181.44 -96 170.88 -96 160 C-74.88 160 -53.76 160 -32 160 C-32 128.32 -32 96.64 -32 64 C-21.44 64 -10.88 64 0 64 C0 42.88 0 21.76 0 0 Z " fill="#FFFFFF" transform="translate(384,160)"/>
<path d="M0 0 C126.72 0 253.44 0 384 0 C384 10.56 384 21.12 384 32 C320.64 32 257.28 32 192 32 C192 42.56 192 53.12 192 64 C181.44 64 170.88 64 160 64 C160 53.44 160 42.88 160 32 C107.2 32 54.4 32 0 32 C0 21.44 0 10.88 0 0 Z " fill="#DE2C2C" transform="translate(352,480)"/>
<path d="M0 0 C10.56 0 21.12 0 32 0 C32 63.36 32 126.72 32 192 C21.44 192 10.88 192 0 192 C0 128.64 0 65.28 0 0 Z " fill="#FFFFFF" transform="translate(96,608)"/>
<path d="M0 0 C31.68 0 63.36 0 96 0 C96 10.56 96 21.12 96 32 C64.32 32 32.64 32 0 32 C0 21.44 0 10.88 0 0 Z " fill="#A0A0A0" transform="translate(544,896)"/>
<path d="M0 0 C31.68 0 63.36 0 96 0 C96 10.56 96 21.12 96 32 C64.32 32 32.64 32 0 32 C0 21.44 0 10.88 0 0 Z " fill="#A0A0A0" transform="translate(416,896)"/>
<path d="M0 0 C21.12 0 42.24 0 64 0 C64 10.56 64 21.12 64 32 C42.88 32 21.76 32 0 32 C0 21.44 0 10.88 0 0 Z " fill="#A0A0A0" transform="translate(224,896)"/>
<path d="M0 0 C21.12 0 42.24 0 64 0 C64 10.56 64 21.12 64 32 C42.88 32 21.76 32 0 32 C0 21.44 0 10.88 0 0 Z " fill="#808080" transform="translate(736,384)"/>
<path d="M0 0 C21.12 0 42.24 0 64 0 C64 10.56 64 21.12 64 32 C42.88 32 21.76 32 0 32 C0 21.44 0 10.88 0 0 Z " fill="#808080" transform="translate(288,384)"/>
<path d="M0 0 C21.12 0 42.24 0 64 0 C64 10.56 64 21.12 64 32 C42.88 32 21.76 32 0 32 C0 21.44 0 10.88 0 0 Z " fill="#808080" transform="translate(736,320)"/>
<path d="M0 0 C21.12 0 42.24 0 64 0 C64 10.56 64 21.12 64 32 C42.88 32 21.76 32 0 32 C0 21.44 0 10.88 0 0 Z " fill="#808080" transform="translate(288,320)"/>
<path d="M0 0 C10.56 0 21.12 0 32 0 C32 21.12 32 42.24 32 64 C21.44 64 10.88 64 0 64 C0 42.88 0 21.76 0 0 Z " fill="#FFCC00" transform="translate(608,288)"/>
<path d="M0 0 C10.56 0 21.12 0 32 0 C32 21.12 32 42.24 32 64 C21.44 64 10.88 64 0 64 C0 42.88 0 21.76 0 0 Z " fill="#FFCC00" transform="translate(448,288)"/>
<path d="M0 0 C10.56 0 21.12 0 32 0 C32 10.56 32 21.12 32 32 C21.44 32 10.88 32 0 32 C0 21.44 0 10.88 0 0 Z " fill="#FFFFFF" transform="translate(32,608)"/>
<path d="M0 0 C10.56 0 21.12 0 32 0 C32 10.56 32 21.12 32 32 C21.44 32 10.88 32 0 32 C0 21.44 0 10.88 0 0 Z " fill="#FFFFFF" transform="translate(64,576)"/>
<path d="M0 0 C10.56 0 21.12 0 32 0 C32 10.56 32 21.12 32 32 C21.44 32 10.88 32 0 32 C0 21.44 0 10.88 0 0 Z " fill="#FFCC00" transform="translate(512,512)"/>
<path d="M0 0 C10.56 0 21.12 0 32 0 C32 10.56 32 21.12 32 32 C21.44 32 10.88 32 0 32 C0 21.44 0 10.88 0 0 Z " fill="#FFB6C1" transform="translate(512,384)"/>
<path d="M0 0 C10.56 0 21.12 0 32 0 C32 10.56 32 21.12 32 32 C21.44 32 10.88 32 0 32 C0 21.44 0 10.88 0 0 Z " fill="#FFB6C1" transform="translate(672,192)"/>
<path d="M0 0 C10.56 0 21.12 0 32 0 C32 10.56 32 21.12 32 32 C21.44 32 10.88 32 0 32 C0 21.44 0 10.88 0 0 Z " fill="#FFB6C1" transform="translate(416,192)"/>
</svg>
